<mxfile host="app.diagrams.net" modified="2023-10-03T23:43:41.756Z" agent="Mozilla/5.0 (X11; Linux x86_64) AppleWebKit/537.36 (KHTML, like Gecko) Chrome/117.0.0.0 Safari/537.36" version="22.0.2" etag="C2f3lxtSfpZ2thzFvQ2p" type="github">
  <diagram name="Page-1" id="wTXjyFWguqde9X98t40t">
    <mxGraphModel>
      <root>
        <mxCell id="0" />
        <mxCell id="1" parent="0" />
      </root>
    </mxGraphModel>
  </diagram>
</mxfile>
